<svg width="30" height="30" xmlns="http://www.w3.org/2000/svg">

 <g>
  <title>Layer 1</title>
  <rect stroke="#000" id="svg_1" height="12.5" width="20.3" y="15.95" x="4.85" fill="#fff"/>
  <path d="m4.77668,15.42395c0,-0.04464 0.00425,-0.08664 0.04464,-0.15625c0.0501,-0.08634 0.11161,-0.22321 0.17857,-0.35714c0.08929,-0.17857 0.18717,-0.35205 0.29018,-0.53571c0.09766,-0.17413 0.18724,-0.40915 0.3125,-0.625c0.12119,-0.20883 0.28725,-0.44821 0.4241,-0.66964c0.15301,-0.24757 0.26284,-0.49387 0.40178,-0.7366c0.12932,-0.22592 0.26229,-0.45043 0.42411,-0.66964c0.15115,-0.20476 0.30599,-0.40702 0.46875,-0.60268c0.17189,-0.20664 0.37365,-0.40777 0.58035,-0.60268c0.19556,-0.18439 0.39814,-0.36215 0.58035,-0.49107c0.1971,-0.13945 0.41913,-0.2542 0.64732,-0.37946c0.21877,-0.12009 0.44643,-0.24553 0.66964,-0.35714c0.22321,-0.11161 0.47502,-0.25408 0.78125,-0.40178c0.29684,-0.14318 0.58246,-0.28565 0.82589,-0.40178c0.22524,-0.10746 0.44854,-0.21759 0.69196,-0.3125c0.27035,-0.10541 0.5124,-0.20394 0.71428,-0.26786c0.22217,-0.07034 0.44171,-0.13227 0.69196,-0.17857c0.22058,-0.04081 0.51433,-0.05767 0.78125,-0.08929c0.29155,-0.03453 0.57971,-0.05579 0.87053,-0.06696c0.31227,-0.01199 0.64805,-0.02217 0.98214,0c0.33704,0.02237 0.6688,0.07099 0.98214,0.13393c0.35625,0.07156 0.69439,0.14579 1.00446,0.22321c0.31532,0.07874 0.62336,0.18408 0.91517,0.26786c0.33307,0.09561 0.62398,0.20401 0.89285,0.29018c0.28912,0.09265 0.55552,0.20658 0.80357,0.3125c0.22109,0.09441 0.44643,0.20089 0.64732,0.33482c0.20089,0.13393 0.41747,0.27149 0.58035,0.4241c0.15018,0.1407 0.30664,0.3178 0.46875,0.49107c0.17253,0.18441 0.37946,0.35714 0.53571,0.51339c0.15625,0.15625 0.31974,0.30558 0.46875,0.46875c0.11756,0.12873 0.21368,0.27371 0.3125,0.42411c0.12257,0.18655 0.24875,0.31041 0.33482,0.44643c0.0696,0.10998 0.10769,0.22458 0.15625,0.35714c0.04135,0.11287 0.09162,0.29901 0.17857,0.46875c0.07338,0.14326 0.1284,0.26983 0.17857,0.40178c0.06041,0.1589 0.12382,0.29269 0.15625,0.40178c0.03425,0.11522 0.07918,0.22572 0.11161,0.33482c0.03425,0.11522 0.07888,0.24769 0.11161,0.37946c0.03403,0.13701 0.06007,0.24714 0.08928,0.35714c0.03623,0.13644 0.07467,0.27181 0.11161,0.37946c0.0324,0.09442 0.05981,0.17915 0.06696,0.22321c0.01131,0.06968 0.02926,0.13572 0.04464,0.20089c0.01147,0.04858 0.02232,0.11161 0.02232,0.15625c0,0.04464 0.02232,0.06696 0.02232,0.11161l0,0.02232" id="svg_2" stroke="#000" fill="none"/>
  <path d="m17.43287,11.16058c0,-0.02232 0.00715,-0.04522 0,-0.08928c-0.01131,-0.06967 -0.06558,-0.15731 -0.13393,-0.24553c-0.08753,-0.11299 -0.23949,-0.2796 -0.49107,-0.40178c-0.30583,-0.14853 -0.64768,-0.24351 -1.02678,-0.3125c-0.35749,-0.06506 -0.71373,-0.10044 -1.0491,-0.11161c-0.33463,-0.01114 -0.62636,-0.00865 -0.9375,0.04464c-0.33655,0.05765 -0.67012,0.16827 -0.9375,0.37946c-0.27249,0.21523 -0.45316,0.47721 -0.58035,0.78125c-0.11717,0.28008 -0.17505,0.63412 -0.06696,1.16071c0.09935,0.48401 0.32042,0.79647 0.60268,1.0491c0.3195,0.28596 0.74987,0.52097 1.29464,0.66964c0.61663,0.16829 1.22555,0.24089 1.89731,0.3125c0.55666,0.05934 1.05128,0.08863 1.49553,0.04464c0.33979,-0.03365 0.64153,-0.16536 0.78125,-0.35714c0.15328,-0.21039 0.20089,-0.46875 0.20089,-0.71428c0,-0.22321 0,-0.44643 0,-0.66964c0,-0.24553 -0.06697,-0.49107 -0.15625,-0.7366c-0.08928,-0.24553 -0.14877,-0.48485 -0.26785,-0.66964c-0.1456,-0.22594 -0.41932,-0.38561 -0.64732,-0.55803c-0.15315,-0.11582 -0.29858,-0.22181 -0.49107,-0.33482c-0.18958,-0.1113 -0.46875,-0.17857 -0.71428,-0.22321l-0.20089,-0.02232l-0.20089,0l-0.15625,0.04464" id="svg_3" stroke="#000" fill="none"/>
  <path d="m15.73645,10.20076c0,0.13393 0.01116,0.42372 0.02232,0.91517c0.01267,0.55789 0.01116,1.16033 0.02232,1.65178c0.00811,0.35705 0.02232,0.58035 0.02232,0.69196l0,0.02232l0,0.02232" id="svg_4" stroke="#000" fill="none"/>
  <path d="m12.41057,11.65165c0.04464,0.02232 0.08535,0.03318 0.13393,0.04464c0.06517,0.01538 0.19941,0.0305 0.4241,0.06696c0.35527,0.05765 0.93835,0.12286 1.58481,0.17857c0.64837,0.05588 1.42794,0.16323 2.14285,0.22321c0.60221,0.05053 1.09315,0.07812 1.40624,0.08928c0.17846,0.00636 0.24553,0 0.26786,0l0.04464,0l0.06697,0l0.08928,0" id="svg_5" stroke="#000" fill="none"/>
  <path d="m11.29451,27.94621c0.02232,-0.06697 0.05238,-0.15424 0.08928,-0.3125c0.05667,-0.24304 0.09985,-0.46585 0.15625,-0.69196c0.05509,-0.22087 0.11161,-0.49107 0.17857,-0.82589c0.06696,-0.33482 0.08525,-0.69278 0.11161,-1.11607c0.02236,-0.35922 0.06517,-0.71677 0.11161,-1.0491c0.04423,-0.31652 0.12678,-0.67195 0.24553,-1.02678c0.10531,-0.31467 0.23689,-0.69555 0.37946,-1.02678c0.12635,-0.29356 0.2542,-0.5654 0.37946,-0.78125c0.16158,-0.27843 0.36801,-0.52426 0.58035,-0.7366c0.21235,-0.21235 0.48672,-0.41008 0.7366,-0.53571c0.28553,-0.14356 0.57864,-0.27973 0.84821,-0.3125c0.28891,-0.03512 0.55803,-0.04464 0.87053,-0.04464c0.29018,0 0.56015,0.03902 0.80357,0.13393c0.27035,0.10542 0.5005,0.23287 0.71428,0.40178c0.2109,0.16663 0.3874,0.35179 0.53571,0.58035c0.14169,0.21837 0.27543,0.51001 0.40178,0.80357c0.14257,0.33123 0.27119,0.6908 0.40178,1.07142c0.11454,0.33383 0.17968,0.71417 0.22321,1.13839c0.0458,0.44631 0.08928,0.89285 0.11161,1.22767c0.02232,0.33482 0.04354,0.6251 0.06696,0.87053c0.02132,0.22331 0.04464,0.44643 0.04464,0.60267c0,0.15625 0,0.3125 0,0.44643c0,0.15625 0,0.26786 0,0.35714c0,0.06697 0,0.08928 0,0.13393c0,0.04464 0.00715,0.11218 0,0.15625c-0.01131,0.06968 -0.02232,0.11161 -0.04464,0.13393l-0.02232,0" id="svg_6" stroke="#000" fill="none"/>
  <path d="m17.23198,24.19623c-0.04464,-0.06697 -0.0608,-0.16122 -0.13393,-0.24553c-0.04136,-0.0477 -0.06696,-0.04464 -0.08928,-0.04464c-0.06696,0 -0.17557,0.05053 -0.26785,0.17857c-0.08755,0.12147 -0.15042,0.29592 -0.11161,0.4241c0.04664,0.15405 0.21031,0.27827 0.40178,0.33482c0.19385,0.05725 0.42733,0.07841 0.60268,0.04464c0.11803,-0.02273 0.17816,-0.1275 0.20089,-0.24553c0.02111,-0.10959 -0.00079,-0.23447 -0.06697,-0.33482c-0.05213,-0.07906 -0.10896,-0.13818 -0.17857,-0.17857c-0.04317,-0.02505 -0.08928,-0.02232 -0.15625,-0.02232c-0.04464,0 -0.08928,0 -0.11161,0.04464l-0.02232,0.04464l-0.02232,0.02232l-0.02232,0.02232" id="svg_7" stroke="#000" fill="none"/>
 </g>
</svg>