<svg width="30" height="30" xmlns="http://www.w3.org/2000/svg">
 <g id="Layer_1">
  <title>Layer 1</title>
  <path id="svg_7" d="m-56.41879,-33.03894l1.48747,0l0,0.47606l-1.48747,0l0,-0.47606z" stroke="#000000" fill="none"/>
  <path id="svg_8" d="m9.95499,-25.0304l1.48747,0l0,0.47606l-1.48747,0l0,-0.47606z" stroke="#000000" fill="none"/>
  <path transform="rotate(-180 14.9848 14.9834)" id="svg_25" d="m13.8761,21.12749l3.86703,-3.7949l-7.47672,0l-7.47671,0l0,-2.34922l0,-2.34922l7.39093,0c4.06501,0 7.39093,-0.11907 7.39093,-0.2646c0,-0.14553 -1.61827,-1.85323 -3.59614,-3.7949l-3.59616,-3.5303l3.32395,0l3.32393,0l5.0764,4.97427l5.0764,4.97427l-5.08614,4.96475l-5.08614,4.96475l-3.49931,0l-3.49932,0l3.86705,-3.7949l0,0z" stroke-width="2" stroke="#000000" fill="#6D97AB"/>
 </g>

</svg>